<mxfile host="app.diagrams.net" modified="2022-10-16T12:49:03.129Z" agent="5.0 (Windows NT 10.0; Win64; x64) AppleWebKit/537.36 (KHTML, like Gecko) Chrome/106.0.0.0 Safari/537.36" etag="gB8dpk2L5a9vk9Xl4uD-" version="20.4.0" type="github">
  <diagram id="OInQUNuNO3AYRQuPPQoJ" name="第 1 页">
    <mxGraphModel dx="2426" dy="1320" grid="1" gridSize="10" guides="1" tooltips="1" connect="1" arrows="1" fold="1" page="1" pageScale="1" pageWidth="1100" pageHeight="850" math="0" shadow="0">
      <root>
        <mxCell id="0" />
        <mxCell id="1" parent="0" />
        <mxCell id="1uEvt_R6zlW470bMk80g-106" value="&lt;span style=&quot;font-weight: 400;&quot;&gt;backend(REST API)&lt;/span&gt;" style="rounded=0;whiteSpace=wrap;html=1;dashed=1;strokeWidth=2;fillColor=none;verticalAlign=top;fontStyle=1;strokeColor=#FF0505;" parent="1" vertex="1">
          <mxGeometry x="232" y="10" width="1420" height="1201" as="geometry" />
        </mxCell>
        <mxCell id="x6n-TaQfmUCHtvgikXO5-33" value="&lt;span style=&quot;font-weight: 400;&quot;&gt;API&lt;/span&gt;" style="rounded=0;whiteSpace=wrap;html=1;dashed=1;strokeWidth=2;fillColor=none;verticalAlign=top;fontStyle=1;strokeColor=#0000FF;" vertex="1" parent="1">
          <mxGeometry x="420" y="40" width="1220" height="1150" as="geometry" />
        </mxCell>
        <mxCell id="1uEvt_R6zlW470bMk80g-233" value="&lt;div&gt;&lt;span style=&quot;font-weight: 400;&quot;&gt;Filter&lt;/span&gt;&lt;/div&gt;" style="rounded=0;whiteSpace=wrap;html=1;dashed=1;strokeWidth=2;fillColor=none;verticalAlign=top;fontStyle=1" parent="1" vertex="1">
          <mxGeometry x="1464" y="80.12" width="160" height="649.88" as="geometry" />
        </mxCell>
        <mxCell id="1uEvt_R6zlW470bMk80g-105" value="&lt;div&gt;&lt;span style=&quot;font-size: 14px; font-weight: 400;&quot;&gt;Third party services&lt;/span&gt;&lt;/div&gt;" style="rounded=0;whiteSpace=wrap;html=1;dashed=1;strokeWidth=2;fillColor=none;verticalAlign=top;fontStyle=1" parent="1" vertex="1">
          <mxGeometry x="52" y="438.68" width="150" height="222.32" as="geometry" />
        </mxCell>
        <mxCell id="1uEvt_R6zlW470bMk80g-107" value="&lt;span style=&quot;font-weight: 400;&quot;&gt;Service&lt;/span&gt;" style="rounded=0;whiteSpace=wrap;html=1;dashed=1;strokeWidth=2;fillColor=none;verticalAlign=top;fontStyle=1" parent="1" vertex="1">
          <mxGeometry x="439" y="191" width="1011" height="979" as="geometry" />
        </mxCell>
        <mxCell id="1uEvt_R6zlW470bMk80g-108" value="&lt;div&gt;&lt;span style=&quot;font-weight: 400;&quot;&gt;File generation&lt;/span&gt;&lt;/div&gt;" style="rounded=0;whiteSpace=wrap;html=1;dashed=1;strokeWidth=2;fillColor=none;verticalAlign=top;fontStyle=1" parent="1" vertex="1">
          <mxGeometry x="679" y="221" width="520" height="210" as="geometry" />
        </mxCell>
        <mxCell id="1uEvt_R6zlW470bMk80g-109" value="&lt;span style=&quot;font-weight: 400;&quot;&gt;Deployment mode&lt;/span&gt;" style="rounded=0;whiteSpace=wrap;html=1;dashed=1;strokeWidth=2;fillColor=none;verticalAlign=top;fontStyle=1" parent="1" vertex="1">
          <mxGeometry x="1672" y="680" width="170" height="370" as="geometry" />
        </mxCell>
        <mxCell id="1uEvt_R6zlW470bMk80g-111" value="&lt;div&gt;&lt;span style=&quot;font-weight: 400;&quot;&gt;DevOps&lt;/span&gt;&lt;/div&gt;" style="rounded=0;whiteSpace=wrap;html=1;dashed=1;strokeWidth=2;fillColor=none;verticalAlign=top;fontStyle=1" parent="1" vertex="1">
          <mxGeometry x="1672" y="41" width="170" height="609" as="geometry" />
        </mxCell>
        <mxCell id="1uEvt_R6zlW470bMk80g-112" value="&lt;span style=&quot;font-weight: 400;&quot;&gt;OCDB Sync Form&amp;nbsp;Engine&lt;/span&gt;" style="rounded=0;whiteSpace=wrap;html=1;dashed=1;strokeWidth=2;fillColor=none;verticalAlign=top;fontStyle=1" parent="1" vertex="1">
          <mxGeometry x="1219" y="221" width="209" height="210" as="geometry" />
        </mxCell>
        <mxCell id="1uEvt_R6zlW470bMk80g-113" value="&lt;span style=&quot;font-weight: 400;&quot;&gt;Out Engine&lt;/span&gt;" style="rounded=0;whiteSpace=wrap;html=1;dashed=1;strokeWidth=2;fillColor=none;verticalAlign=top;fontStyle=1" parent="1" vertex="1">
          <mxGeometry x="459" y="580" width="970" height="120" as="geometry" />
        </mxCell>
        <mxCell id="1uEvt_R6zlW470bMk80g-114" value="&lt;div&gt;&lt;span style=&quot;font-weight: 400;&quot;&gt;GateWay&lt;/span&gt;&lt;/div&gt;" style="rounded=0;whiteSpace=wrap;html=1;dashed=1;strokeWidth=2;fillColor=none;verticalAlign=top;fontStyle=1" parent="1" vertex="1">
          <mxGeometry x="439" y="70" width="1011" height="110" as="geometry" />
        </mxCell>
        <mxCell id="1uEvt_R6zlW470bMk80g-115" value="&lt;div&gt;&lt;span style=&quot;font-weight: 400;&quot;&gt;Cache Server&lt;/span&gt;&lt;/div&gt;" style="rounded=0;whiteSpace=wrap;html=1;dashed=1;strokeWidth=2;fillColor=none;verticalAlign=top;fontStyle=1" parent="1" vertex="1">
          <mxGeometry x="242" y="1240" width="280" height="130" as="geometry" />
        </mxCell>
        <mxCell id="1uEvt_R6zlW470bMk80g-116" value="&lt;div&gt;&lt;span style=&quot;font-weight: 400;&quot;&gt;DB&lt;/span&gt;&lt;/div&gt;" style="rounded=0;whiteSpace=wrap;html=1;dashed=1;strokeWidth=2;fillColor=none;verticalAlign=top;fontStyle=1" parent="1" vertex="1">
          <mxGeometry x="1182" y="1240" width="470" height="130" as="geometry" />
        </mxCell>
        <mxCell id="1uEvt_R6zlW470bMk80g-117" value="&lt;span style=&quot;font-weight: 400;&quot;&gt;File Storage&lt;/span&gt;" style="rounded=0;whiteSpace=wrap;html=1;dashed=1;strokeWidth=2;fillColor=none;verticalAlign=top;fontStyle=1" parent="1" vertex="1">
          <mxGeometry x="542" y="1240" width="620" height="130" as="geometry" />
        </mxCell>
        <mxCell id="1uEvt_R6zlW470bMk80g-118" value="&lt;div&gt;&lt;span style=&quot;font-weight: 400;&quot;&gt;Logging&lt;/span&gt;&lt;/div&gt;" style="rounded=0;whiteSpace=wrap;html=1;dashed=1;strokeWidth=2;fillColor=none;verticalAlign=top;fontStyle=1" parent="1" vertex="1">
          <mxGeometry x="1464" y="750" width="159" height="420" as="geometry" />
        </mxCell>
        <mxCell id="1uEvt_R6zlW470bMk80g-123" value="Redis Server" style="rounded=0;whiteSpace=wrap;html=1;fontColor=#000000;fillColor=none;" parent="1" vertex="1">
          <mxGeometry x="312" y="1280" width="140" height="60" as="geometry" />
        </mxCell>
        <mxCell id="1uEvt_R6zlW470bMk80g-128" value="&lt;span style=&quot;font-weight: 400;&quot;&gt;Business Data&lt;/span&gt;" style="rounded=0;whiteSpace=wrap;html=1;dashed=1;strokeWidth=2;fillColor=none;verticalAlign=top;fontStyle=1" parent="1" vertex="1">
          <mxGeometry x="460.5" y="720.49" width="351" height="110" as="geometry" />
        </mxCell>
        <mxCell id="1uEvt_R6zlW470bMk80g-137" value="Itextpdf" style="rounded=0;whiteSpace=wrap;html=1;fontColor=#000000;fillColor=none;" parent="1" vertex="1">
          <mxGeometry x="959" y="251" width="140" height="60" as="geometry" />
        </mxCell>
        <mxCell id="1uEvt_R6zlW470bMk80g-138" value="Poi" style="rounded=0;whiteSpace=wrap;html=1;fontColor=#000000;fillColor=none;" parent="1" vertex="1">
          <mxGeometry x="744" y="254.75" width="140" height="60" as="geometry" />
        </mxCell>
        <mxCell id="1uEvt_R6zlW470bMk80g-144" value="&lt;div&gt;&lt;span style=&quot;font-size: 14px; font-weight: 400;&quot;&gt;OC Other services&lt;/span&gt;&lt;/div&gt;" style="rounded=0;whiteSpace=wrap;html=1;dashed=1;strokeWidth=2;fillColor=none;verticalAlign=top;fontStyle=1" parent="1" vertex="1">
          <mxGeometry x="52" y="41" width="150" height="380" as="geometry" />
        </mxCell>
        <mxCell id="1uEvt_R6zlW470bMk80g-145" value="Core Banking" style="rounded=0;whiteSpace=wrap;html=1;fontColor=#000000;fillColor=none;" parent="1" vertex="1">
          <mxGeometry x="57" y="95" width="140" height="60" as="geometry" />
        </mxCell>
        <mxCell id="1uEvt_R6zlW470bMk80g-146" value="Pismo" style="rounded=0;whiteSpace=wrap;html=1;fontColor=#000000;fillColor=none;" parent="1" vertex="1">
          <mxGeometry x="57" y="171" width="140" height="60" as="geometry" />
        </mxCell>
        <mxCell id="1uEvt_R6zlW470bMk80g-147" value="SLP" style="rounded=0;whiteSpace=wrap;html=1;fontColor=#000000;fillColor=none;" parent="1" vertex="1">
          <mxGeometry x="57" y="251" width="140" height="60" as="geometry" />
        </mxCell>
        <mxCell id="1uEvt_R6zlW470bMk80g-148" value="MMS" style="rounded=0;whiteSpace=wrap;html=1;fontColor=#000000;fillColor=none;" parent="1" vertex="1">
          <mxGeometry x="57" y="333.5" width="140" height="60" as="geometry" />
        </mxCell>
        <mxCell id="1uEvt_R6zlW470bMk80g-151" value="OCDB&amp;nbsp;Route&amp;nbsp;Config" style="rounded=0;whiteSpace=wrap;html=1;fontColor=#000000;fillColor=none;" parent="1" vertex="1">
          <mxGeometry x="999" y="100" width="140" height="60" as="geometry" />
        </mxCell>
        <mxCell id="1uEvt_R6zlW470bMk80g-167" value="&lt;span style=&quot;font-weight: 400;&quot;&gt;Build&lt;/span&gt;" style="rounded=0;whiteSpace=wrap;html=1;dashed=1;strokeWidth=2;fillColor=none;verticalAlign=top;fontStyle=1" parent="1" vertex="1">
          <mxGeometry x="1672" y="1080" width="170" height="130" as="geometry" />
        </mxCell>
        <mxCell id="1uEvt_R6zlW470bMk80g-169" value="&lt;div&gt;SLP Form Synchronization&lt;/div&gt;" style="rounded=0;whiteSpace=wrap;html=1;fontColor=#000000;fillColor=none;" parent="1" vertex="1">
          <mxGeometry x="1253.5" y="254.75" width="140" height="60" as="geometry" />
        </mxCell>
        <mxCell id="1uEvt_R6zlW470bMk80g-186" value="Google Zxing" style="rounded=0;whiteSpace=wrap;html=1;fontColor=#000000;fillColor=none;" parent="1" vertex="1">
          <mxGeometry x="964" y="347" width="140" height="60" as="geometry" />
        </mxCell>
        <mxCell id="1uEvt_R6zlW470bMk80g-197" value="Google Firebase" style="rounded=0;whiteSpace=wrap;html=1;fontColor=#000000;fillColor=none;" parent="1" vertex="1">
          <mxGeometry x="57" y="471" width="140" height="60" as="geometry" />
        </mxCell>
        <mxCell id="1uEvt_R6zlW470bMk80g-199" value="&lt;span style=&quot;font-size: 14px; font-weight: 400;&quot;&gt;Monitor&lt;/span&gt;" style="rounded=0;whiteSpace=wrap;html=1;dashed=1;strokeWidth=2;fillColor=none;verticalAlign=top;fontStyle=1" parent="1" vertex="1">
          <mxGeometry x="251" y="666" width="152" height="120" as="geometry" />
        </mxCell>
        <mxCell id="1uEvt_R6zlW470bMk80g-208" value="OCDB&amp;nbsp;Reset ErrorMessage" style="rounded=0;whiteSpace=wrap;html=1;fontColor=#000000;fillColor=none;" parent="1" vertex="1">
          <mxGeometry x="1473" y="541" width="140" height="60" as="geometry" />
        </mxCell>
        <mxCell id="1uEvt_R6zlW470bMk80g-210" value="&lt;span style=&quot;font-size: 14px;&quot;&gt;Turbine&lt;/span&gt;" style="rounded=0;whiteSpace=wrap;html=1;fontColor=#000000;fillColor=#FFCCCC;" parent="1" vertex="1">
          <mxGeometry x="260" y="710" width="134" height="60" as="geometry" />
        </mxCell>
        <mxCell id="1uEvt_R6zlW470bMk80g-212" value="&lt;div&gt;OCDB form adaptation&lt;/div&gt;" style="rounded=0;whiteSpace=wrap;html=1;fontColor=#000000;fillColor=none;" parent="1" vertex="1">
          <mxGeometry x="1259" y="347" width="140" height="60" as="geometry" />
        </mxCell>
        <mxCell id="1uEvt_R6zlW470bMk80g-213" value="Mock" style="rounded=0;whiteSpace=wrap;html=1;fontColor=#000000;fillColor=none;" parent="1" vertex="1">
          <mxGeometry x="1266" y="616" width="140" height="60" as="geometry" />
        </mxCell>
        <mxCell id="1uEvt_R6zlW470bMk80g-214" value="OCDB Response Assertions" style="rounded=0;whiteSpace=wrap;html=1;fontColor=#000000;fillColor=none;" parent="1" vertex="1">
          <mxGeometry x="1104" y="616" width="140" height="60" as="geometry" />
        </mxCell>
        <mxCell id="1uEvt_R6zlW470bMk80g-215" value="OCDB Response transformation" style="rounded=0;whiteSpace=wrap;html=1;fontColor=#000000;fillColor=none;" parent="1" vertex="1">
          <mxGeometry x="942" y="616" width="140" height="60" as="geometry" />
        </mxCell>
        <mxCell id="1uEvt_R6zlW470bMk80g-225" value="Multiple data sources" style="rounded=0;whiteSpace=wrap;html=1;fontColor=#000000;fillColor=none;" parent="1" vertex="1">
          <mxGeometry x="628.5" y="750.4899999999999" width="139" height="60" as="geometry" />
        </mxCell>
        <mxCell id="1uEvt_R6zlW470bMk80g-227" value="Mybatis Plus" style="rounded=0;whiteSpace=wrap;html=1;fontColor=#000000;fillColor=none;" parent="1" vertex="1">
          <mxGeometry x="466.5" y="750.4899999999999" width="139" height="60" as="geometry" />
        </mxCell>
        <mxCell id="1uEvt_R6zlW470bMk80g-229" value="&lt;div&gt;&lt;span style=&quot;background-color: initial;&quot;&gt;Request decryption&amp;nbsp;&lt;/span&gt;&lt;br&gt;&lt;/div&gt;&lt;div&gt;&lt;span style=&quot;background-color: initial;&quot;&gt;AES(16bit),RSA(1024bit)&lt;/span&gt;&lt;/div&gt;" style="rounded=0;whiteSpace=wrap;html=1;fontColor=#000000;fillColor=none;" parent="1" vertex="1">
          <mxGeometry x="1474" y="333.5" width="140" height="60" as="geometry" />
        </mxCell>
        <mxCell id="1uEvt_R6zlW470bMk80g-232" value="&lt;div&gt;&lt;span style=&quot;background-color: initial;&quot;&gt;Response Encryption&lt;/span&gt;&lt;br&gt;&lt;/div&gt;&lt;div&gt;&lt;span style=&quot;background-color: initial;&quot;&gt;AES(16bit),RSA(1024bit)&lt;/span&gt;&lt;/div&gt;" style="rounded=0;whiteSpace=wrap;html=1;fontColor=#000000;fillColor=none;" parent="1" vertex="1">
          <mxGeometry x="1473" y="646.32" width="140" height="60" as="geometry" />
        </mxCell>
        <mxCell id="1uEvt_R6zlW470bMk80g-234" value="JWT&lt;br&gt;Authentication" style="rounded=0;whiteSpace=wrap;html=1;fontColor=#000000;fillColor=#FFCCCC;" parent="1" vertex="1">
          <mxGeometry x="1476" y="141" width="140" height="60" as="geometry" />
        </mxCell>
        <mxCell id="1uEvt_R6zlW470bMk80g-235" value="OCDB&lt;br&gt;Permission Check" style="rounded=0;whiteSpace=wrap;html=1;fontColor=#000000;fillColor=#FFCCCC;" parent="1" vertex="1">
          <mxGeometry x="1476" y="233.67" width="140" height="60" as="geometry" />
        </mxCell>
        <mxCell id="1uEvt_R6zlW470bMk80g-238" value="Logstash" style="rounded=0;whiteSpace=wrap;html=1;fontColor=#000000;fillColor=none;" parent="1" vertex="1">
          <mxGeometry x="1476" y="786" width="140" height="60" as="geometry" />
        </mxCell>
        <mxCell id="1uEvt_R6zlW470bMk80g-239" value="Ocmb Desensitize" style="rounded=0;whiteSpace=wrap;html=1;fontColor=#000000;fillColor=none;" parent="1" vertex="1">
          <mxGeometry x="1474" y="885" width="140" height="60" as="geometry" />
        </mxCell>
        <mxCell id="1uEvt_R6zlW470bMk80g-240" value="Ocmb&lt;br&gt;Log Format" style="rounded=0;whiteSpace=wrap;html=1;fontColor=#000000;fillColor=none;" parent="1" vertex="1">
          <mxGeometry x="1476" y="985" width="140" height="60" as="geometry" />
        </mxCell>
        <mxCell id="1uEvt_R6zlW470bMk80g-241" value="OCDB&lt;br&gt;RequestID Tracking" style="rounded=0;whiteSpace=wrap;html=1;fontColor=#000000;fillColor=none;" parent="1" vertex="1">
          <mxGeometry x="1476" y="1086" width="140" height="60" as="geometry" />
        </mxCell>
        <mxCell id="1uEvt_R6zlW470bMk80g-245" value="Jenkins" style="rounded=0;whiteSpace=wrap;html=1;fontColor=#000000;fillColor=none;" parent="1" vertex="1">
          <mxGeometry x="1687" y="95" width="140" height="60" as="geometry" />
        </mxCell>
        <mxCell id="1uEvt_R6zlW470bMk80g-246" value="SonarQube" style="rounded=0;whiteSpace=wrap;html=1;fontColor=#000000;fillColor=#FFCCCC;" parent="1" vertex="1">
          <mxGeometry x="1687" y="190.99999999999997" width="140" height="60" as="geometry" />
        </mxCell>
        <mxCell id="1uEvt_R6zlW470bMk80g-247" value="Source-to-Image" style="rounded=0;whiteSpace=wrap;html=1;fontColor=#000000;fillColor=none;" parent="1" vertex="1">
          <mxGeometry x="1687" y="287" width="140" height="60" as="geometry" />
        </mxCell>
        <mxCell id="1uEvt_R6zlW470bMk80g-250" value="ELK" style="rounded=0;whiteSpace=wrap;html=1;fontColor=#000000;fillColor=#FFCCCC;" parent="1" vertex="1">
          <mxGeometry x="1687" y="378.68" width="140" height="60" as="geometry" />
        </mxCell>
        <mxCell id="1uEvt_R6zlW470bMk80g-251" value="AWS Docker&amp;nbsp;&lt;br&gt;Image&amp;nbsp;Repo" style="rounded=0;whiteSpace=wrap;html=1;fontColor=#000000;fillColor=none;" parent="1" vertex="1">
          <mxGeometry x="1687" y="464" width="140" height="60" as="geometry" />
        </mxCell>
        <mxCell id="1uEvt_R6zlW470bMk80g-252" value="Docker" style="rounded=0;whiteSpace=wrap;html=1;fontColor=#000000;fillColor=none;" parent="1" vertex="1">
          <mxGeometry x="1687" y="730" width="140" height="60" as="geometry" />
        </mxCell>
        <mxCell id="1uEvt_R6zlW470bMk80g-253" value="Jar" style="rounded=0;whiteSpace=wrap;html=1;fontColor=#000000;fillColor=none;" parent="1" vertex="1">
          <mxGeometry x="1687" y="843" width="140" height="60" as="geometry" />
        </mxCell>
        <mxCell id="1uEvt_R6zlW470bMk80g-255" value="K8s" style="rounded=0;whiteSpace=wrap;html=1;fontColor=#000000;fillColor=#FFCCCC;" parent="1" vertex="1">
          <mxGeometry x="1687" y="955" width="140" height="60" as="geometry" />
        </mxCell>
        <mxCell id="1uEvt_R6zlW470bMk80g-256" value="Maven" style="rounded=0;whiteSpace=wrap;html=1;fontColor=#000000;fillColor=none;" parent="1" vertex="1">
          <mxGeometry x="1682" y="1120" width="140" height="60" as="geometry" />
        </mxCell>
        <mxCell id="1uEvt_R6zlW470bMk80g-257" value="Response Format" style="rounded=0;whiteSpace=wrap;html=1;fontColor=#000000;fillColor=none;" parent="1" vertex="1">
          <mxGeometry x="1473" y="438.68000000000006" width="140" height="60" as="geometry" />
        </mxCell>
        <mxCell id="1uEvt_R6zlW470bMk80g-259" value="&lt;div&gt;Cloud disk&lt;/div&gt;" style="rounded=0;whiteSpace=wrap;html=1;fontColor=#000000;fillColor=none;" parent="1" vertex="1">
          <mxGeometry x="862" y="1280" width="130" height="60" as="geometry" />
        </mxCell>
        <mxCell id="1uEvt_R6zlW470bMk80g-260" value="Hard disk" style="rounded=0;whiteSpace=wrap;html=1;fontColor=#000000;fillColor=none;" parent="1" vertex="1">
          <mxGeometry x="712" y="1280" width="130" height="60" as="geometry" />
        </mxCell>
        <mxCell id="1uEvt_R6zlW470bMk80g-261" value="AWS S3 Server" style="rounded=0;whiteSpace=wrap;html=1;fontColor=#000000;fillColor=none;" parent="1" vertex="1">
          <mxGeometry x="562" y="1280" width="130" height="60" as="geometry" />
        </mxCell>
        <mxCell id="1uEvt_R6zlW470bMk80g-262" value="DateBase" style="rounded=0;whiteSpace=wrap;html=1;fontColor=#000000;fillColor=none;" parent="1" vertex="1">
          <mxGeometry x="1012" y="1280" width="130" height="60" as="geometry" />
        </mxCell>
        <mxCell id="1uEvt_R6zlW470bMk80g-263" value="Mysql" style="rounded=0;whiteSpace=wrap;html=1;fontColor=#000000;fillColor=none;" parent="1" vertex="1">
          <mxGeometry x="1202" y="1280" width="130" height="60" as="geometry" />
        </mxCell>
        <mxCell id="1uEvt_R6zlW470bMk80g-264" value="Mariadb" style="rounded=0;whiteSpace=wrap;html=1;fontColor=#000000;fillColor=none;" parent="1" vertex="1">
          <mxGeometry x="1353" y="1280" width="130" height="60" as="geometry" />
        </mxCell>
        <mxCell id="1uEvt_R6zlW470bMk80g-265" value="Mongodb" style="rounded=0;whiteSpace=wrap;html=1;fontColor=#000000;fillColor=#FFCCCC;" parent="1" vertex="1">
          <mxGeometry x="1502" y="1280" width="130" height="60" as="geometry" />
        </mxCell>
        <mxCell id="x6n-TaQfmUCHtvgikXO5-2" value="&lt;span style=&quot;font-weight: 400;&quot;&gt;parent&lt;/span&gt;" style="rounded=0;whiteSpace=wrap;html=1;dashed=1;strokeWidth=2;fillColor=none;verticalAlign=top;fontStyle=1" vertex="1" parent="1">
          <mxGeometry x="460" y="860" width="969" height="291" as="geometry" />
        </mxCell>
        <mxCell id="x6n-TaQfmUCHtvgikXO5-3" value="&lt;span style=&quot;font-weight: normal;&quot;&gt;Basic framework&lt;/span&gt;" style="rounded=0;whiteSpace=wrap;html=1;dashed=1;strokeWidth=2;fillColor=none;verticalAlign=top;fontStyle=1" vertex="1" parent="1">
          <mxGeometry x="480" y="1015" width="329" height="120" as="geometry" />
        </mxCell>
        <mxCell id="x6n-TaQfmUCHtvgikXO5-4" value="SpringCloud" style="rounded=0;whiteSpace=wrap;html=1;fontColor=#000000;fillColor=none;" vertex="1" parent="1">
          <mxGeometry x="500" y="1045" width="140" height="60" as="geometry" />
        </mxCell>
        <mxCell id="x6n-TaQfmUCHtvgikXO5-5" value="SpringBoot" style="rounded=0;whiteSpace=wrap;html=1;fontColor=#000000;fillColor=none;" vertex="1" parent="1">
          <mxGeometry x="652" y="1045" width="140" height="60" as="geometry" />
        </mxCell>
        <mxCell id="x6n-TaQfmUCHtvgikXO5-15" value="Freemarker" style="rounded=0;whiteSpace=wrap;html=1;fontColor=#000000;fillColor=none;" vertex="1" parent="1">
          <mxGeometry x="744" y="340.56" width="140" height="60" as="geometry" />
        </mxCell>
        <mxCell id="x6n-TaQfmUCHtvgikXO5-16" value="Test Coverage" style="rounded=0;whiteSpace=wrap;html=1;fontColor=#000000;fillColor=#FFCCCC;" vertex="1" parent="1">
          <mxGeometry x="1687" y="561.5" width="140" height="60" as="geometry" />
        </mxCell>
        <mxCell id="1uEvt_R6zlW470bMk80g-170" value="&lt;span style=&quot;font-weight: 400;&quot;&gt;Document&lt;/span&gt;" style="rounded=0;whiteSpace=wrap;html=1;dashed=1;strokeWidth=2;fillColor=none;verticalAlign=top;fontStyle=1" parent="1" vertex="1">
          <mxGeometry x="480" y="885" width="329" height="120" as="geometry" />
        </mxCell>
        <mxCell id="1uEvt_R6zlW470bMk80g-177" value="&lt;span style=&quot;font-weight: 400;&quot;&gt;Common tools&lt;/span&gt;" style="rounded=0;whiteSpace=wrap;html=1;dashed=1;strokeWidth=2;fillColor=none;verticalAlign=top;fontStyle=1" parent="1" vertex="1">
          <mxGeometry x="834" y="885" width="575" height="110" as="geometry" />
        </mxCell>
        <mxCell id="1uEvt_R6zlW470bMk80g-178" value="Hutool" style="rounded=0;whiteSpace=wrap;html=1;fontColor=#000000;fillColor=none;" parent="1" vertex="1">
          <mxGeometry x="1051.5" y="920" width="140" height="60" as="geometry" />
        </mxCell>
        <mxCell id="1uEvt_R6zlW470bMk80g-179" value="Projectlombok" style="rounded=0;whiteSpace=wrap;html=1;fontColor=#000000;fillColor=none;" parent="1" vertex="1">
          <mxGeometry x="849" y="920" width="140" height="60" as="geometry" />
        </mxCell>
        <mxCell id="1uEvt_R6zlW470bMk80g-183" value="Knife4j" style="rounded=0;whiteSpace=wrap;html=1;fontColor=#000000;fillColor=none;" parent="1" vertex="1">
          <mxGeometry x="650" y="918.75" width="142" height="62.5" as="geometry" />
        </mxCell>
        <mxCell id="1uEvt_R6zlW470bMk80g-189" value="Commons Lang3" style="rounded=0;whiteSpace=wrap;html=1;fontColor=#000000;fillColor=none;" parent="1" vertex="1">
          <mxGeometry x="1249" y="925" width="140" height="60" as="geometry" />
        </mxCell>
        <mxCell id="1uEvt_R6zlW470bMk80g-190" value="&lt;span style=&quot;font-weight: 400;&quot;&gt;Microservice support&lt;/span&gt;" style="rounded=0;whiteSpace=wrap;html=1;dashed=1;strokeWidth=2;fillColor=none;verticalAlign=top;fontStyle=1" parent="1" vertex="1">
          <mxGeometry x="829" y="1015" width="580" height="120" as="geometry" />
        </mxCell>
        <mxCell id="1uEvt_R6zlW470bMk80g-191" value="SpringCloud Eureka Client" style="rounded=0;whiteSpace=wrap;html=1;fontColor=#000000;fillColor=none;" parent="1" vertex="1">
          <mxGeometry x="854" y="1059.85" width="135" height="60" as="geometry" />
        </mxCell>
        <mxCell id="1uEvt_R6zlW470bMk80g-217" value="OCDB Request transformation" style="rounded=0;whiteSpace=wrap;html=1;fontColor=#000000;fillColor=none;" parent="1" vertex="1">
          <mxGeometry x="781" y="616" width="140" height="60" as="geometry" />
        </mxCell>
        <mxCell id="1uEvt_R6zlW470bMk80g-119" value="&lt;span style=&quot;font-size: 14px; font-weight: 400;&quot;&gt;Microservice &lt;br&gt;registry &amp;amp; Discovery&lt;/span&gt;" style="rounded=0;whiteSpace=wrap;html=1;dashed=1;strokeWidth=2;fillColor=none;verticalAlign=top;fontStyle=1" parent="1" vertex="1">
          <mxGeometry x="252" y="81" width="150" height="280" as="geometry" />
        </mxCell>
        <mxCell id="1uEvt_R6zlW470bMk80g-141" value="Eureka Client" style="rounded=0;whiteSpace=wrap;html=1;fontColor=#000000;fillColor=none;" parent="1" vertex="1">
          <mxGeometry x="257" y="210.12" width="140" height="60" as="geometry" />
        </mxCell>
        <mxCell id="1uEvt_R6zlW470bMk80g-142" value="Spring Cloud&amp;nbsp;Netflix" style="rounded=0;whiteSpace=wrap;html=1;fontColor=#000000;fillColor=none;" parent="1" vertex="1">
          <mxGeometry x="257" y="141" width="140" height="60" as="geometry" />
        </mxCell>
        <mxCell id="1uEvt_R6zlW470bMk80g-143" value="Eureka Server" style="rounded=0;whiteSpace=wrap;html=1;fontColor=#000000;fillColor=none;" parent="1" vertex="1">
          <mxGeometry x="257" y="287" width="140" height="60" as="geometry" />
        </mxCell>
        <mxCell id="1uEvt_R6zlW470bMk80g-181" value="Swagger2" style="rounded=0;whiteSpace=wrap;html=1;fontColor=#000000;fillColor=none;" parent="1" vertex="1">
          <mxGeometry x="500" y="917.5" width="140" height="62.5" as="geometry" />
        </mxCell>
        <mxCell id="1uEvt_R6zlW470bMk80g-192" value="&lt;div&gt;&lt;span style=&quot;font-weight: 400;&quot;&gt;Data&amp;nbsp;Management&lt;/span&gt;&lt;/div&gt;" style="rounded=0;whiteSpace=wrap;html=1;dashed=1;strokeWidth=2;fillColor=none;verticalAlign=top;fontStyle=1" parent="1" vertex="1">
          <mxGeometry x="454" y="221" width="205" height="101.27" as="geometry" />
        </mxCell>
        <mxCell id="1uEvt_R6zlW470bMk80g-193" value="Flyway" style="rounded=0;whiteSpace=wrap;html=1;fontColor=#000000;fillColor=none;" parent="1" vertex="1">
          <mxGeometry x="479" y="254.75" width="140" height="60" as="geometry" />
        </mxCell>
        <mxCell id="1uEvt_R6zlW470bMk80g-198" value="&lt;div&gt;&lt;span style=&quot;font-size: 14px; font-weight: 400;&quot;&gt;Distributed Transactions&lt;/span&gt;&lt;/div&gt;" style="rounded=0;whiteSpace=wrap;html=1;dashed=1;strokeWidth=2;fillColor=none;verticalAlign=top;fontStyle=1" parent="1" vertex="1">
          <mxGeometry x="252" y="524" width="150" height="122.32" as="geometry" />
        </mxCell>
        <mxCell id="1uEvt_R6zlW470bMk80g-211" value="Seata" style="rounded=0;whiteSpace=wrap;html=1;fontColor=#000000;fillColor=#FFCCCC;" parent="1" vertex="1">
          <mxGeometry x="257" y="566.3199999999999" width="133" height="60" as="geometry" />
        </mxCell>
        <mxCell id="1uEvt_R6zlW470bMk80g-219" value="OCDB Request transformation" style="rounded=0;whiteSpace=wrap;html=1;fontColor=#000000;fillColor=none;" parent="1" vertex="1">
          <mxGeometry x="619" y="616" width="140" height="60" as="geometry" />
        </mxCell>
        <mxCell id="1uEvt_R6zlW470bMk80g-220" value="OCDB Request Rule" style="rounded=0;whiteSpace=wrap;html=1;fontColor=#000000;fillColor=none;" parent="1" vertex="1">
          <mxGeometry x="464" y="616" width="140" height="60" as="geometry" />
        </mxCell>
        <mxCell id="x6n-TaQfmUCHtvgikXO5-17" value="&lt;span style=&quot;font-weight: 400;&quot;&gt;Queue&lt;/span&gt;" style="rounded=0;whiteSpace=wrap;html=1;dashed=1;strokeWidth=2;fillColor=none;verticalAlign=top;fontStyle=1" vertex="1" parent="1">
          <mxGeometry x="454" y="331" width="205" height="100.01" as="geometry" />
        </mxCell>
        <mxCell id="1uEvt_R6zlW470bMk80g-136" value="RabbitMq" style="rounded=0;whiteSpace=wrap;html=1;fontColor=#000000;fillColor=none;" parent="1" vertex="1">
          <mxGeometry x="479" y="355.38" width="140" height="60" as="geometry" />
        </mxCell>
        <mxCell id="x6n-TaQfmUCHtvgikXO5-1" value="&lt;span style=&quot;font-weight: 400;&quot;&gt;Integrate&lt;/span&gt;" style="rounded=0;whiteSpace=wrap;html=1;dashed=1;strokeWidth=2;fillColor=none;verticalAlign=top;fontStyle=1" vertex="1" parent="1">
          <mxGeometry x="458" y="450" width="582" height="111.5" as="geometry" />
        </mxCell>
        <mxCell id="1uEvt_R6zlW470bMk80g-139" value="Aws java sdk" style="rounded=0;whiteSpace=wrap;html=1;fontColor=#000000;fillColor=none;" parent="1" vertex="1">
          <mxGeometry x="679" y="480.5" width="130" height="60" as="geometry" />
        </mxCell>
        <mxCell id="1uEvt_R6zlW470bMk80g-149" value="Openvidu" style="rounded=0;whiteSpace=wrap;html=1;fontColor=#000000;fillColor=none;" parent="1" vertex="1">
          <mxGeometry x="57" y="567" width="140" height="60" as="geometry" />
        </mxCell>
        <mxCell id="1uEvt_R6zlW470bMk80g-174" value="Google firebase admin" style="rounded=0;whiteSpace=wrap;html=1;fontColor=#000000;fillColor=none;" parent="1" vertex="1">
          <mxGeometry x="480" y="481" width="140" height="60" as="geometry" />
        </mxCell>
        <mxCell id="1uEvt_R6zlW470bMk80g-205" value="Openvidu java client" style="rounded=0;whiteSpace=wrap;html=1;fontColor=#000000;fillColor=none;" parent="1" vertex="1">
          <mxGeometry x="874.5" y="481" width="140" height="60" as="geometry" />
        </mxCell>
        <mxCell id="1uEvt_R6zlW470bMk80g-127" value="&lt;span style=&quot;font-weight: 400;&quot;&gt;Cache&lt;/span&gt;" style="rounded=0;whiteSpace=wrap;html=1;dashed=1;strokeWidth=2;fillColor=none;verticalAlign=top;fontStyle=1" parent="1" vertex="1">
          <mxGeometry x="253" y="390" width="150" height="110" as="geometry" />
        </mxCell>
        <mxCell id="1uEvt_R6zlW470bMk80g-134" value="Redis-client" style="rounded=0;whiteSpace=wrap;html=1;fontColor=#000000;fillColor=none;" parent="1" vertex="1">
          <mxGeometry x="261" y="420" width="130" height="60" as="geometry" />
        </mxCell>
        <mxCell id="1uEvt_R6zlW470bMk80g-188" value="WebSocket" style="rounded=0;whiteSpace=wrap;html=1;fontColor=#000000;fillColor=none;" parent="1" vertex="1">
          <mxGeometry x="1104" y="480.5" width="140" height="60" as="geometry" />
        </mxCell>
        <mxCell id="1uEvt_R6zlW470bMk80g-140" value="Spring Cloud&amp;nbsp;gateway" style="rounded=0;whiteSpace=wrap;html=1;fontColor=#000000;fillColor=none;" parent="1" vertex="1">
          <mxGeometry x="604" y="100" width="140" height="60" as="geometry" />
        </mxCell>
        <mxCell id="x6n-TaQfmUCHtvgikXO5-24" value="Openfeign" style="rounded=0;whiteSpace=wrap;html=1;fontColor=#000000;fillColor=none;" vertex="1" parent="1">
          <mxGeometry x="1051.5" y="1059.85" width="140" height="60" as="geometry" />
        </mxCell>
        <mxCell id="x6n-TaQfmUCHtvgikXO5-29" value="Hystrix" style="rounded=0;whiteSpace=wrap;html=1;fontColor=#000000;fillColor=#FFCCCC;strokeColor=default;" vertex="1" parent="1">
          <mxGeometry x="1250" y="1059.85" width="140" height="60" as="geometry" />
        </mxCell>
        <mxCell id="x6n-TaQfmUCHtvgikXO5-30" value="&lt;span style=&quot;font-weight: 400;&quot;&gt;Data Security&lt;/span&gt;" style="rounded=0;whiteSpace=wrap;html=1;dashed=1;strokeWidth=2;fillColor=none;verticalAlign=top;fontStyle=1" vertex="1" parent="1">
          <mxGeometry x="836.5" y="720.49" width="346" height="110" as="geometry" />
        </mxCell>
        <mxCell id="1uEvt_R6zlW470bMk80g-161" value="&lt;div&gt;Interceptor&lt;/div&gt;&lt;div&gt;Insert/Update Encryption&amp;nbsp;&lt;span style=&quot;background-color: initial;&quot;&gt;AES(16bit)&lt;/span&gt;&lt;/div&gt;" style="rounded=0;whiteSpace=wrap;html=1;fontColor=#000000;fillColor=none;" parent="1" vertex="1">
          <mxGeometry x="852.5" y="750.49" width="139" height="60" as="geometry" />
        </mxCell>
        <mxCell id="x6n-TaQfmUCHtvgikXO5-46" value="&lt;div&gt;Interceptor&amp;nbsp;&lt;span style=&quot;background-color: initial;&quot;&gt;Query Decryption&amp;nbsp;&lt;/span&gt;&lt;span style=&quot;background-color: initial;&quot;&gt;AES(16bit)&lt;/span&gt;&lt;/div&gt;" style="rounded=0;whiteSpace=wrap;html=1;fontColor=#000000;fillColor=none;" vertex="1" parent="1">
          <mxGeometry x="1017" y="750.49" width="139" height="60" as="geometry" />
        </mxCell>
        <mxCell id="x6n-TaQfmUCHtvgikXO5-48" value="&lt;div&gt;&lt;span style=&quot;font-size: 14px; font-weight: 400;&quot;&gt;Dynamic configuration&lt;/span&gt;&lt;/div&gt;" style="rounded=0;whiteSpace=wrap;html=1;dashed=1;strokeWidth=2;fillColor=none;verticalAlign=top;fontStyle=1" vertex="1" parent="1">
          <mxGeometry x="252" y="811" width="152" height="124" as="geometry" />
        </mxCell>
        <mxCell id="x6n-TaQfmUCHtvgikXO5-49" value="&lt;span style=&quot;font-size: 14px;&quot;&gt;Sirius&lt;/span&gt;" style="rounded=0;whiteSpace=wrap;html=1;fontColor=#000000;fillColor=#FFCCCC;" vertex="1" parent="1">
          <mxGeometry x="260" y="851" width="134" height="60" as="geometry" />
        </mxCell>
      </root>
    </mxGraphModel>
  </diagram>
</mxfile>
